M48
; DRILL file {KiCad 9.0.2} date 2025-07-18T16:31:00+0200
; FORMAT={-:-/ absolute / metric / decimal}
; #@! TF.CreationDate,2025-07-18T16:31:00+02:00
; #@! TF.GenerationSoftware,Kicad,Pcbnew,9.0.2
; #@! TF.FileFunction,Plated,1,2,PTH
FMAT,2
METRIC
; #@! TA.AperFunction,Plated,PTH,ViaDrill
T1C0.300
; #@! TA.AperFunction,Plated,PTH,ComponentDrill
T2C0.300
; #@! TA.AperFunction,Plated,PTH,ViaDrill
T3C0.600
; #@! TA.AperFunction,Plated,PTH,ComponentDrill
T4C0.750
; #@! TA.AperFunction,Plated,PTH,ComponentDrill
T5C0.800
; #@! TA.AperFunction,Plated,PTH,ComponentDrill
T6C1.000
; #@! TA.AperFunction,Plated,PTH,ComponentDrill
T7C1.100
; #@! TA.AperFunction,Plated,PTH,ViaDrill
T8C1.200
; #@! TA.AperFunction,Plated,PTH,ComponentDrill
T9C1.200
; #@! TA.AperFunction,Plated,PTH,ComponentDrill
T10C3.200
; #@! TA.AperFunction,Plated,PTH,ComponentDrill
T11C4.500
%
G90
G05
T1
X133.447Y-60.908
X133.849Y-61.6
X143.5Y-52.795
X154.215Y-89.215
X154.75Y-113.25
X154.75Y-114.5
X161.0Y-117.0
X166.8Y-87.945
X166.8Y-89.215
X166.825Y-86.675
X168.3Y-71.9
X169.0Y-75.634
X170.7Y-85.4
X174.066Y-76.234
X174.5Y-79.0
X174.5Y-88.0
X174.9Y-105.0
X175.375Y-79.7
X176.0Y-83.5
X177.5Y-62.5
X179.0Y-48.9
X179.0Y-52.0
X182.0Y-68.9
X182.978Y-68.564
X183.5Y-98.4
X184.0Y-77.5
X184.7Y-66.5
X185.257Y-65.5
X185.3Y-102.9
X185.5Y-91.865
X186.0Y-111.0
X187.019Y-65.513
X187.619Y-64.7
X188.5Y-62.1
X189.1Y-65.828
X190.5Y-63.5
X191.0Y-47.5
X191.0Y-49.5
X191.0Y-51.5
X191.0Y-53.5
X201.0Y-48.0
X216.6Y-59.25
T2
X174.295Y-47.942
X174.295Y-49.468
X175.058Y-47.18
X175.058Y-48.705
X175.058Y-50.23
X175.82Y-47.942
X175.82Y-49.468
X176.582Y-47.18
X176.582Y-48.705
X176.582Y-50.23
X177.345Y-47.942
X177.345Y-49.468
T3
X131.5Y-53.5
X131.5Y-58.5
X131.5Y-93.5
X131.5Y-113.5
X136.5Y-38.5
X136.5Y-128.5
X140.763Y-96.237
X141.5Y-38.5
X141.5Y-128.5
X142.7Y-66.3
X142.7Y-71.2
X145.5Y-63.5
X146.5Y-38.5
X146.5Y-128.5
X151.5Y-38.5
X151.5Y-128.5
X156.5Y-38.5
X156.5Y-128.5
X156.7Y-70.5
X161.5Y-38.5
X161.5Y-128.5
X162.537Y-43.538
X163.5Y-85.0
X164.0Y-70.5
X164.5Y-88.0
X166.0Y-123.0
X166.5Y-38.5
X166.5Y-128.5
X170.5Y-62.5
X171.5Y-38.5
X176.5Y-38.5
X181.5Y-38.5
X183.6Y-80.3
X186.5Y-38.5
X191.5Y-38.5
X196.5Y-38.5
X196.5Y-128.5
X201.5Y-38.5
X201.5Y-128.5
X206.5Y-38.5
X206.5Y-128.5
X211.5Y-38.5
X211.5Y-128.5
X216.5Y-38.5
X216.5Y-128.5
X221.5Y-68.5
X221.5Y-73.5
X221.5Y-78.5
X221.5Y-83.5
X221.5Y-88.5
X221.5Y-93.5
X221.5Y-98.5
X221.5Y-103.5
X221.5Y-113.5
T4
X216.23Y-73.23
X217.5Y-71.96
X217.5Y-74.5
T5
X172.0Y-118.25
X174.0Y-118.25
X179.25Y-118.25
X181.25Y-118.25
X196.0Y-102.69
X196.0Y-110.31
X203.0Y-113.0
X203.0Y-115.0
T6
X131.5Y-44.42
X131.5Y-46.96
X131.5Y-49.5
X131.5Y-73.88
X131.5Y-76.42
X131.5Y-78.96
X131.5Y-81.5
X131.5Y-84.04
X131.5Y-86.58
X131.5Y-89.12
X131.5Y-117.42
X131.5Y-119.96
X131.5Y-122.5
X217.5Y-81.5
X217.5Y-86.5
X221.5Y-44.5
X221.5Y-47.04
X221.5Y-49.58
X221.5Y-55.96
X221.5Y-58.5
X221.5Y-61.04
X221.5Y-63.58
X221.5Y-117.42
X221.5Y-119.96
X221.5Y-122.5
T7
X203.0Y-104.96
X203.0Y-107.5
X203.0Y-110.04
T8
X170.5Y-69.45
X173.6Y-92.0
X176.5Y-96.577
X179.541Y-97.107
X180.5Y-65.5
T9
X146.02Y-83.5
X206.98Y-83.5
T10
X131.5Y-38.5
X131.5Y-128.5
X221.5Y-38.5
X221.5Y-128.5
T11
X172.8Y-128.5
X180.0Y-128.5
M30
