%TF.GenerationSoftware,KiCad,Pcbnew,9.0.2*%
%TF.CreationDate,2025-07-18T16:30:58+02:00*%
%TF.ProjectId,Drone_Flight_Controller,44726f6e-655f-4466-9c69-6768745f436f,V1*%
%TF.SameCoordinates,Original*%
%TF.FileFunction,Soldermask,Bot*%
%TF.FilePolarity,Negative*%
%FSLAX46Y46*%
G04 Gerber Fmt 4.6, Leading zero omitted, Abs format (unit mm)*
G04 Created by KiCad (PCBNEW 9.0.2) date 2025-07-18 16:30:58*
%MOMM*%
%LPD*%
G01*
G04 APERTURE LIST*
G04 Aperture macros list*
%AMRoundRect*
0 Rectangle with rounded corners*
0 $1 Rounding radius*
0 $2 $3 $4 $5 $6 $7 $8 $9 X,Y pos of 4 corners*
0 Add a 4 corners polygon primitive as box body*
4,1,4,$2,$3,$4,$5,$6,$7,$8,$9,$2,$3,0*
0 Add four circle primitives for the rounded corners*
1,1,$1+$1,$2,$3*
1,1,$1+$1,$4,$5*
1,1,$1+$1,$6,$7*
1,1,$1+$1,$8,$9*
0 Add four rect primitives between the rounded corners*
20,1,$1+$1,$2,$3,$4,$5,0*
20,1,$1+$1,$4,$5,$6,$7,0*
20,1,$1+$1,$6,$7,$8,$9,0*
20,1,$1+$1,$8,$9,$2,$3,0*%
G04 Aperture macros list end*
%ADD10R,1.700000X1.700000*%
%ADD11C,1.700000*%
%ADD12RoundRect,0.250000X0.550000X0.550000X-0.550000X0.550000X-0.550000X-0.550000X0.550000X-0.550000X0*%
%ADD13C,1.600000*%
%ADD14RoundRect,1.500000X1.500000X1.500000X-1.500000X1.500000X-1.500000X-1.500000X1.500000X-1.500000X0*%
%ADD15C,6.000000*%
%ADD16RoundRect,0.250000X-0.550000X0.550000X-0.550000X-0.550000X0.550000X-0.550000X0.550000X0.550000X0*%
%ADD17R,2.000000X2.000000*%
%ADD18C,2.000000*%
%ADD19C,3.600000*%
%ADD20C,6.400000*%
%ADD21RoundRect,0.250000X-0.550000X-0.550000X0.550000X-0.550000X0.550000X0.550000X-0.550000X0.550000X0*%
%ADD22C,3.500000*%
%ADD23R,2.000000X1.905000*%
%ADD24O,2.000000X1.905000*%
%ADD25R,1.800000X1.100000*%
%ADD26RoundRect,0.275000X0.625000X-0.275000X0.625000X0.275000X-0.625000X0.275000X-0.625000X-0.275000X0*%
%ADD27C,2.400000*%
G04 APERTURE END LIST*
D10*
%TO.C,J302*%
X221500000Y-55960000D03*
D11*
X221500000Y-58500000D03*
X221500000Y-61040000D03*
X221500000Y-63580000D03*
%TD*%
D12*
%TO.C,C201*%
X181250000Y-118250000D03*
D13*
X179250000Y-118250000D03*
%TD*%
D14*
%TO.C,J304*%
X180000000Y-128500000D03*
D15*
X172800000Y-128500000D03*
%TD*%
D10*
%TO.C,J303*%
X221500000Y-44500000D03*
D11*
X221500000Y-47040000D03*
X221500000Y-49580000D03*
%TD*%
D16*
%TO.C,D201*%
X196000000Y-102690000D03*
D13*
X196000000Y-110310000D03*
%TD*%
D17*
%TO.C,BZ501*%
X217500000Y-86500000D03*
D18*
X217500000Y-81500000D03*
%TD*%
D19*
%TO.C,H304*%
X131500000Y-128500000D03*
D20*
X131500000Y-128500000D03*
%TD*%
D10*
%TO.C,J306*%
X221500000Y-117420000D03*
D11*
X221500000Y-119960000D03*
X221500000Y-122500000D03*
%TD*%
D19*
%TO.C,H302*%
X221500000Y-38500000D03*
D20*
X221500000Y-38500000D03*
%TD*%
D21*
%TO.C,C305*%
X172000000Y-118250000D03*
D13*
X174000000Y-118250000D03*
%TD*%
D19*
%TO.C,H303*%
X221500000Y-128500000D03*
D20*
X221500000Y-128500000D03*
%TD*%
D16*
%TO.C,C202*%
X203000000Y-113000000D03*
D13*
X203000000Y-115000000D03*
%TD*%
D10*
%TO.C,J301*%
X131500000Y-44420000D03*
D11*
X131500000Y-46960000D03*
X131500000Y-49500000D03*
%TD*%
%TO.C,P701*%
X131500000Y-86580000D03*
D10*
X131500000Y-73880000D03*
D11*
X131500000Y-76420000D03*
X131500000Y-84040000D03*
X131500000Y-81500000D03*
X131500000Y-78960000D03*
X131500000Y-89120000D03*
%TD*%
D19*
%TO.C,H301*%
X131500000Y-38500000D03*
D20*
X131500000Y-38500000D03*
%TD*%
D22*
%TO.C,Q201*%
X219660000Y-107500000D03*
D23*
X203000000Y-104960000D03*
D24*
X203000000Y-107500000D03*
X203000000Y-110040000D03*
%TD*%
D25*
%TO.C,Q501*%
X217900000Y-74500000D03*
D26*
X215830000Y-73230000D03*
X217900000Y-71960000D03*
%TD*%
D10*
%TO.C,J305*%
X131500000Y-117420000D03*
D11*
X131500000Y-119960000D03*
X131500000Y-122500000D03*
%TD*%
D27*
%TO.C,R205*%
X146020000Y-83500000D03*
X206980000Y-83500000D03*
%TD*%
M02*
