%TF.GenerationSoftware,KiCad,Pcbnew,9.0.4*%
%TF.CreationDate,2025-12-02T12:13:10+01:00*%
%TF.ProjectId,Drone_Flight_Controller,44726f6e-655f-4466-9c69-6768745f436f,V3*%
%TF.SameCoordinates,Original*%
%TF.FileFunction,Soldermask,Bot*%
%TF.FilePolarity,Negative*%
%FSLAX46Y46*%
G04 Gerber Fmt 4.6, Leading zero omitted, Abs format (unit mm)*
G04 Created by KiCad (PCBNEW 9.0.4) date 2025-12-02 12:13:10*
%MOMM*%
%LPD*%
G01*
G04 APERTURE LIST*
G04 Aperture macros list*
%AMRoundRect*
0 Rectangle with rounded corners*
0 $1 Rounding radius*
0 $2 $3 $4 $5 $6 $7 $8 $9 X,Y pos of 4 corners*
0 Add a 4 corners polygon primitive as box body*
4,1,4,$2,$3,$4,$5,$6,$7,$8,$9,$2,$3,0*
0 Add four circle primitives for the rounded corners*
1,1,$1+$1,$2,$3*
1,1,$1+$1,$4,$5*
1,1,$1+$1,$6,$7*
1,1,$1+$1,$8,$9*
0 Add four rect primitives between the rounded corners*
20,1,$1+$1,$2,$3,$4,$5,0*
20,1,$1+$1,$4,$5,$6,$7,0*
20,1,$1+$1,$6,$7,$8,$9,0*
20,1,$1+$1,$8,$9,$2,$3,0*%
G04 Aperture macros list end*
%ADD10RoundRect,0.275000X-0.275000X-0.625000X0.275000X-0.625000X0.275000X0.625000X-0.275000X0.625000X0*%
%ADD11R,1.100000X1.800000*%
%ADD12C,1.700000*%
%ADD13R,1.700000X1.700000*%
%ADD14C,4.400000*%
%ADD15C,2.600000*%
%ADD16O,1.600000X1.000000*%
%ADD17O,2.100000X1.000000*%
%ADD18C,0.650000*%
%ADD19C,6.000000*%
%ADD20RoundRect,1.500000X1.500000X1.500000X-1.500000X1.500000X-1.500000X-1.500000X1.500000X-1.500000X0*%
%ADD21C,1.600000*%
%ADD22RoundRect,0.250000X-0.550000X-0.550000X0.550000X-0.550000X0.550000X0.550000X-0.550000X0.550000X0*%
%ADD23C,2.000000*%
%ADD24R,2.000000X2.000000*%
%ADD25RoundRect,0.250000X0.450000X-0.350000X0.450000X0.350000X-0.450000X0.350000X-0.450000X-0.350000X0*%
%ADD26RoundRect,0.250000X-0.250000X-0.475000X0.250000X-0.475000X0.250000X0.475000X-0.250000X0.475000X0*%
%ADD27C,1.000000*%
%ADD28RoundRect,0.150000X0.150000X-0.512500X0.150000X0.512500X-0.150000X0.512500X-0.150000X-0.512500X0*%
%ADD29RoundRect,0.250000X-0.475000X0.250000X-0.475000X-0.250000X0.475000X-0.250000X0.475000X0.250000X0*%
%ADD30RoundRect,0.250000X-0.475000X0.337500X-0.475000X-0.337500X0.475000X-0.337500X0.475000X0.337500X0*%
%ADD31RoundRect,0.150000X0.512500X0.150000X-0.512500X0.150000X-0.512500X-0.150000X0.512500X-0.150000X0*%
%ADD32RoundRect,0.250000X0.250000X0.475000X-0.250000X0.475000X-0.250000X-0.475000X0.250000X-0.475000X0*%
%ADD33RoundRect,0.250000X-0.375000X-0.625000X0.375000X-0.625000X0.375000X0.625000X-0.375000X0.625000X0*%
%ADD34RoundRect,0.250000X0.350000X0.450000X-0.350000X0.450000X-0.350000X-0.450000X0.350000X-0.450000X0*%
%ADD35RoundRect,0.250000X0.250000X0.250000X-0.250000X0.250000X-0.250000X-0.250000X0.250000X-0.250000X0*%
%ADD36RoundRect,0.250000X-0.450000X0.350000X-0.450000X-0.350000X0.450000X-0.350000X0.450000X0.350000X0*%
%ADD37R,1.143000X1.498600*%
%ADD38R,1.701800X1.397000*%
%ADD39R,1.498600X1.143000*%
%ADD40R,1.498600X0.812800*%
%ADD41RoundRect,0.250000X0.337500X0.475000X-0.337500X0.475000X-0.337500X-0.475000X0.337500X-0.475000X0*%
%ADD42RoundRect,0.250000X-0.350000X-0.450000X0.350000X-0.450000X0.350000X0.450000X-0.350000X0.450000X0*%
%ADD43R,0.675000X0.254000*%
%ADD44R,0.254000X0.675000*%
%ADD45R,0.500000X0.350000*%
G04 APERTURE END LIST*
D10*
%TO.C,Q1*%
X154020000Y-93070000D03*
X152750000Y-91000000D03*
D11*
X151480000Y-93070000D03*
%TD*%
D12*
%TO.C,Motor4*%
X178250000Y-53830000D03*
X178250000Y-51290000D03*
D13*
X178250000Y-48750000D03*
%TD*%
D14*
%TO.C,H1*%
X139750000Y-102250000D03*
D15*
X139750000Y-102250000D03*
%TD*%
D14*
%TO.C,H2*%
X139750000Y-44250000D03*
D15*
X139750000Y-44250000D03*
%TD*%
D14*
%TO.C,H3*%
X177750000Y-102250000D03*
D15*
X177750000Y-102250000D03*
%TD*%
D12*
%TO.C,Motor1*%
X139260000Y-97830000D03*
X139260000Y-95290000D03*
D13*
X139260000Y-92750000D03*
%TD*%
D16*
%TO.C,USB-C*%
X139600000Y-73460000D03*
D17*
X143780000Y-73460000D03*
D16*
X139600000Y-64820000D03*
D17*
X143780000Y-64820000D03*
D18*
X143250000Y-72030000D03*
X143250000Y-66250000D03*
%TD*%
D12*
%TO.C,GPS*%
X139250000Y-84250000D03*
X141790000Y-84250000D03*
X144330000Y-84250000D03*
D13*
X146870000Y-84250000D03*
%TD*%
D19*
%TO.C,J1*%
X155150000Y-99794888D03*
D20*
X162350000Y-99794888D03*
%TD*%
D12*
%TO.C,Motor2*%
X139250000Y-53830000D03*
X139250000Y-51290000D03*
D13*
X139250000Y-48750000D03*
%TD*%
D14*
%TO.C,H4*%
X177750000Y-44250000D03*
D15*
X177750000Y-44250000D03*
%TD*%
D12*
%TO.C,Shunt*%
X139250000Y-88350000D03*
X141790000Y-88350000D03*
D13*
X144330000Y-88350000D03*
%TD*%
D21*
%TO.C,C1*%
X159794888Y-92050000D03*
D22*
X157794888Y-92050000D03*
%TD*%
D12*
%TO.C,Motor3*%
X178250000Y-97750000D03*
X178250000Y-95210000D03*
D13*
X178250000Y-92670000D03*
%TD*%
D23*
%TO.C,BZ1*%
X158250000Y-85250000D03*
D24*
X158250000Y-80250000D03*
%TD*%
D25*
%TO.C,R28*%
X172150000Y-90750000D03*
X172150000Y-92750000D03*
%TD*%
%TO.C,R7*%
X162750000Y-68155000D03*
X162750000Y-70155000D03*
%TD*%
D26*
%TO.C,C13*%
X149300000Y-44220000D03*
X147400000Y-44220000D03*
%TD*%
D25*
%TO.C,R27*%
X162850000Y-90750000D03*
X162850000Y-92750000D03*
%TD*%
D27*
%TO.C,GND*%
X168150000Y-102250000D03*
%TD*%
D25*
%TO.C,R11*%
X156750000Y-59700000D03*
X156750000Y-61700000D03*
%TD*%
D28*
%TO.C,U9*%
X143150000Y-91975000D03*
X141250000Y-91975000D03*
X141250000Y-94250000D03*
X142200000Y-94250000D03*
X143150000Y-94250000D03*
%TD*%
D29*
%TO.C,C10*%
X160750000Y-61650000D03*
X160750000Y-59750000D03*
%TD*%
D30*
%TO.C,C4*%
X162750000Y-74570000D03*
X162750000Y-72495000D03*
%TD*%
D31*
%TO.C,U8*%
X147212500Y-46100000D03*
X147212500Y-48000000D03*
X149487500Y-48000000D03*
X149487500Y-47050000D03*
X149487500Y-46100000D03*
%TD*%
D32*
%TO.C,C8*%
X168000000Y-44550000D03*
X169900000Y-44550000D03*
%TD*%
D25*
%TO.C,R26*%
X165950000Y-90750000D03*
X165950000Y-92750000D03*
%TD*%
D33*
%TO.C,F1*%
X149950000Y-71870000D03*
X147150000Y-71870000D03*
%TD*%
D34*
%TO.C,R4*%
X151750000Y-87750000D03*
X153750000Y-87750000D03*
%TD*%
D32*
%TO.C,C2*%
X153700000Y-75255000D03*
X155600000Y-75255000D03*
%TD*%
%TO.C,C15*%
X144850000Y-93250000D03*
X146750000Y-93250000D03*
%TD*%
D25*
%TO.C,R25*%
X169050000Y-90750000D03*
X169050000Y-92750000D03*
%TD*%
D35*
%TO.C,D1*%
X147150000Y-66590000D03*
X149650000Y-66590000D03*
%TD*%
D27*
%TO.C,5V*%
X174250000Y-102250000D03*
%TD*%
%TO.C,3V3*%
X171150000Y-102250000D03*
%TD*%
D36*
%TO.C,R10*%
X160750000Y-65700000D03*
X160750000Y-63700000D03*
%TD*%
D25*
%TO.C,R9*%
X156750000Y-63700000D03*
X156750000Y-65700000D03*
%TD*%
%TO.C,R29*%
X175250000Y-90750000D03*
X175250000Y-92750000D03*
%TD*%
D37*
%TO.C,J3*%
X165423598Y-75749999D03*
X165423599Y-84649999D03*
D38*
X179898599Y-75300000D03*
X179898599Y-88200000D03*
D37*
X165423599Y-82350001D03*
D39*
X170148601Y-75174999D03*
D40*
X176998600Y-76750000D03*
X176998600Y-77850000D03*
X176998600Y-78950001D03*
X176998600Y-80050001D03*
X176998600Y-81150001D03*
X176998600Y-82249999D03*
X176998600Y-83349999D03*
X176998600Y-84450000D03*
%TD*%
D32*
%TO.C,C5*%
X153700000Y-71255000D03*
X155600000Y-71255000D03*
%TD*%
D41*
%TO.C,C7*%
X157712500Y-68155000D03*
X159787500Y-68155000D03*
%TD*%
D42*
%TO.C,R3*%
X153750000Y-84250000D03*
X151750000Y-84250000D03*
%TD*%
%TO.C,R20*%
X141700000Y-86400000D03*
X139700000Y-86400000D03*
%TD*%
D32*
%TO.C,C16*%
X142350000Y-97050000D03*
X144250000Y-97050000D03*
%TD*%
%TO.C,C9*%
X168000000Y-50050000D03*
X169900000Y-50050000D03*
%TD*%
D43*
%TO.C,U5*%
X157087500Y-71500000D03*
X157087500Y-72000000D03*
X157087500Y-72500000D03*
X157087500Y-73000000D03*
X157087500Y-73500000D03*
X157087500Y-74000000D03*
X157087500Y-74500000D03*
X157087500Y-75000000D03*
X157087500Y-75500000D03*
D44*
X158000000Y-75637500D03*
X158500000Y-75637500D03*
X159000000Y-75637500D03*
X159500000Y-75637500D03*
D43*
X160412500Y-75500000D03*
X160412500Y-75000000D03*
X160412500Y-74500000D03*
X160412500Y-74000000D03*
X160412500Y-73500000D03*
X160412500Y-73000000D03*
X160412500Y-72500000D03*
X160412500Y-72000000D03*
X160412500Y-71500000D03*
X160412500Y-71000000D03*
D44*
X159500000Y-70862500D03*
X159000000Y-70862500D03*
X158500000Y-70862500D03*
X158000000Y-70862500D03*
D43*
X157087500Y-71000000D03*
%TD*%
D45*
%TO.C,U7*%
X169850000Y-46325000D03*
X169850000Y-46975000D03*
X169850000Y-47625000D03*
X169850000Y-48275000D03*
X168250000Y-48275000D03*
X168250000Y-47625000D03*
X168250000Y-46975000D03*
X168250000Y-46325000D03*
%TD*%
D32*
%TO.C,C12*%
X147400000Y-49880000D03*
X149300000Y-49880000D03*
%TD*%
M02*
