%TF.GenerationSoftware,KiCad,Pcbnew,9.0.4*%
%TF.CreationDate,2025-12-02T12:13:09+01:00*%
%TF.ProjectId,Drone_Flight_Controller,44726f6e-655f-4466-9c69-6768745f436f,V3*%
%TF.SameCoordinates,Original*%
%TF.FileFunction,Paste,Bot*%
%TF.FilePolarity,Positive*%
%FSLAX46Y46*%
G04 Gerber Fmt 4.6, Leading zero omitted, Abs format (unit mm)*
G04 Created by KiCad (PCBNEW 9.0.4) date 2025-12-02 12:13:09*
%MOMM*%
%LPD*%
G01*
G04 APERTURE LIST*
G04 Aperture macros list*
%AMRoundRect*
0 Rectangle with rounded corners*
0 $1 Rounding radius*
0 $2 $3 $4 $5 $6 $7 $8 $9 X,Y pos of 4 corners*
0 Add a 4 corners polygon primitive as box body*
4,1,4,$2,$3,$4,$5,$6,$7,$8,$9,$2,$3,0*
0 Add four circle primitives for the rounded corners*
1,1,$1+$1,$2,$3*
1,1,$1+$1,$4,$5*
1,1,$1+$1,$6,$7*
1,1,$1+$1,$8,$9*
0 Add four rect primitives between the rounded corners*
20,1,$1+$1,$2,$3,$4,$5,0*
20,1,$1+$1,$4,$5,$6,$7,0*
20,1,$1+$1,$6,$7,$8,$9,0*
20,1,$1+$1,$8,$9,$2,$3,0*%
G04 Aperture macros list end*
%ADD10RoundRect,0.250000X0.450000X-0.350000X0.450000X0.350000X-0.450000X0.350000X-0.450000X-0.350000X0*%
%ADD11RoundRect,0.250000X-0.250000X-0.475000X0.250000X-0.475000X0.250000X0.475000X-0.250000X0.475000X0*%
%ADD12RoundRect,0.150000X0.150000X-0.512500X0.150000X0.512500X-0.150000X0.512500X-0.150000X-0.512500X0*%
%ADD13RoundRect,0.250000X-0.475000X0.250000X-0.475000X-0.250000X0.475000X-0.250000X0.475000X0.250000X0*%
%ADD14RoundRect,0.250000X-0.475000X0.337500X-0.475000X-0.337500X0.475000X-0.337500X0.475000X0.337500X0*%
%ADD15RoundRect,0.150000X0.512500X0.150000X-0.512500X0.150000X-0.512500X-0.150000X0.512500X-0.150000X0*%
%ADD16RoundRect,0.250000X0.250000X0.475000X-0.250000X0.475000X-0.250000X-0.475000X0.250000X-0.475000X0*%
%ADD17RoundRect,0.250000X-0.375000X-0.625000X0.375000X-0.625000X0.375000X0.625000X-0.375000X0.625000X0*%
%ADD18RoundRect,0.250000X0.350000X0.450000X-0.350000X0.450000X-0.350000X-0.450000X0.350000X-0.450000X0*%
%ADD19RoundRect,0.250000X0.250000X0.250000X-0.250000X0.250000X-0.250000X-0.250000X0.250000X-0.250000X0*%
%ADD20RoundRect,0.250000X-0.450000X0.350000X-0.450000X-0.350000X0.450000X-0.350000X0.450000X0.350000X0*%
%ADD21R,1.143000X1.498600*%
%ADD22R,1.701800X1.397000*%
%ADD23R,1.498600X1.143000*%
%ADD24R,1.498600X0.812800*%
%ADD25RoundRect,0.250000X0.337500X0.475000X-0.337500X0.475000X-0.337500X-0.475000X0.337500X-0.475000X0*%
%ADD26RoundRect,0.250000X-0.350000X-0.450000X0.350000X-0.450000X0.350000X0.450000X-0.350000X0.450000X0*%
%ADD27R,0.675000X0.254000*%
%ADD28R,0.254000X0.675000*%
%ADD29R,0.500000X0.350000*%
G04 APERTURE END LIST*
D10*
%TO.C,R28*%
X172150000Y-90750000D03*
X172150000Y-92750000D03*
%TD*%
%TO.C,R7*%
X162750000Y-68155000D03*
X162750000Y-70155000D03*
%TD*%
D11*
%TO.C,C13*%
X149300000Y-44220000D03*
X147400000Y-44220000D03*
%TD*%
D10*
%TO.C,R27*%
X162850000Y-90750000D03*
X162850000Y-92750000D03*
%TD*%
%TO.C,R11*%
X156750000Y-59700000D03*
X156750000Y-61700000D03*
%TD*%
D12*
%TO.C,U9*%
X143150000Y-91975000D03*
X141250000Y-91975000D03*
X141250000Y-94250000D03*
X142200000Y-94250000D03*
X143150000Y-94250000D03*
%TD*%
D13*
%TO.C,C10*%
X160750000Y-61650000D03*
X160750000Y-59750000D03*
%TD*%
D14*
%TO.C,C4*%
X162750000Y-74570000D03*
X162750000Y-72495000D03*
%TD*%
D15*
%TO.C,U8*%
X147212500Y-46100000D03*
X147212500Y-48000000D03*
X149487500Y-48000000D03*
X149487500Y-47050000D03*
X149487500Y-46100000D03*
%TD*%
D16*
%TO.C,C8*%
X168000000Y-44550000D03*
X169900000Y-44550000D03*
%TD*%
D10*
%TO.C,R26*%
X165950000Y-90750000D03*
X165950000Y-92750000D03*
%TD*%
D17*
%TO.C,F1*%
X149950000Y-71870000D03*
X147150000Y-71870000D03*
%TD*%
D18*
%TO.C,R4*%
X151750000Y-87750000D03*
X153750000Y-87750000D03*
%TD*%
D16*
%TO.C,C2*%
X153700000Y-75255000D03*
X155600000Y-75255000D03*
%TD*%
%TO.C,C15*%
X144850000Y-93250000D03*
X146750000Y-93250000D03*
%TD*%
D10*
%TO.C,R25*%
X169050000Y-90750000D03*
X169050000Y-92750000D03*
%TD*%
D19*
%TO.C,D1*%
X147150000Y-66590000D03*
X149650000Y-66590000D03*
%TD*%
D20*
%TO.C,R10*%
X160750000Y-65700000D03*
X160750000Y-63700000D03*
%TD*%
D10*
%TO.C,R9*%
X156750000Y-63700000D03*
X156750000Y-65700000D03*
%TD*%
%TO.C,R29*%
X175250000Y-90750000D03*
X175250000Y-92750000D03*
%TD*%
D21*
%TO.C,J3*%
X165423598Y-75749999D03*
X165423599Y-84649999D03*
D22*
X179898599Y-75300000D03*
X179898599Y-88200000D03*
D21*
X165423599Y-82350001D03*
D23*
X170148601Y-75174999D03*
D24*
X176998600Y-76750000D03*
X176998600Y-77850000D03*
X176998600Y-78950001D03*
X176998600Y-80050001D03*
X176998600Y-81150001D03*
X176998600Y-82249999D03*
X176998600Y-83349999D03*
X176998600Y-84450000D03*
%TD*%
D16*
%TO.C,C5*%
X153700000Y-71255000D03*
X155600000Y-71255000D03*
%TD*%
D25*
%TO.C,C7*%
X157712500Y-68155000D03*
X159787500Y-68155000D03*
%TD*%
D26*
%TO.C,R3*%
X153750000Y-84250000D03*
X151750000Y-84250000D03*
%TD*%
%TO.C,R20*%
X141700000Y-86400000D03*
X139700000Y-86400000D03*
%TD*%
D16*
%TO.C,C16*%
X142350000Y-97050000D03*
X144250000Y-97050000D03*
%TD*%
%TO.C,C9*%
X168000000Y-50050000D03*
X169900000Y-50050000D03*
%TD*%
D27*
%TO.C,U5*%
X157087500Y-71500000D03*
X157087500Y-72000000D03*
X157087500Y-72500000D03*
X157087500Y-73000000D03*
X157087500Y-73500000D03*
X157087500Y-74000000D03*
X157087500Y-74500000D03*
X157087500Y-75000000D03*
X157087500Y-75500000D03*
D28*
X158000000Y-75637500D03*
X158500000Y-75637500D03*
X159000000Y-75637500D03*
X159500000Y-75637500D03*
D27*
X160412500Y-75500000D03*
X160412500Y-75000000D03*
X160412500Y-74500000D03*
X160412500Y-74000000D03*
X160412500Y-73500000D03*
X160412500Y-73000000D03*
X160412500Y-72500000D03*
X160412500Y-72000000D03*
X160412500Y-71500000D03*
X160412500Y-71000000D03*
D28*
X159500000Y-70862500D03*
X159000000Y-70862500D03*
X158500000Y-70862500D03*
X158000000Y-70862500D03*
D27*
X157087500Y-71000000D03*
%TD*%
D29*
%TO.C,U7*%
X169850000Y-46325000D03*
X169850000Y-46975000D03*
X169850000Y-47625000D03*
X169850000Y-48275000D03*
X168250000Y-48275000D03*
X168250000Y-47625000D03*
X168250000Y-46975000D03*
X168250000Y-46325000D03*
%TD*%
D16*
%TO.C,C12*%
X147400000Y-49880000D03*
X149300000Y-49880000D03*
%TD*%
M02*
