M48
; DRILL file {KiCad 9.0.4} date 2025-12-02T12:13:00+0100
; FORMAT={-:-/ absolute / metric / decimal}
; #@! TF.CreationDate,2025-12-02T12:13:00+01:00
; #@! TF.GenerationSoftware,Kicad,Pcbnew,9.0.4
; #@! TF.FileFunction,MixedPlating,1,2
FMAT,2
METRIC
; #@! TA.AperFunction,Plated,PTH,ViaDrill
T1C0.300
; #@! TA.AperFunction,Plated,PTH,ViaDrill
T2C0.500
; #@! TA.AperFunction,Plated,PTH,ComponentDrill
T3C0.600
; #@! TA.AperFunction,Plated,PTH,ComponentDrill
T4C0.750
; #@! TA.AperFunction,Plated,PTH,ComponentDrill
T5C0.800
; #@! TA.AperFunction,Plated,PTH,ComponentDrill
T6C1.000
; #@! TA.AperFunction,Plated,PTH,ComponentDrill
T7C2.200
; #@! TA.AperFunction,Plated,PTH,ComponentDrill
T8C4.500
; #@! TA.AperFunction,NonPlated,NPTH,ComponentDrill
T9C0.650
%
G90
G05
T1
X137.95Y-46.69
X137.95Y-52.69
X137.95Y-54.69
X137.95Y-55.69
X137.95Y-56.69
X137.95Y-63.69
X137.95Y-64.69
X137.95Y-65.69
X137.95Y-66.69
X137.95Y-67.69
X137.95Y-68.69
X137.95Y-69.69
X137.95Y-70.69
X137.95Y-71.69
X137.95Y-72.69
X137.95Y-73.69
X137.95Y-74.69
X137.95Y-77.69
X137.95Y-78.69
X137.95Y-81.69
X137.95Y-82.69
X137.95Y-85.69
X137.95Y-86.69
X137.95Y-89.69
X137.95Y-90.69
X137.95Y-96.69
X137.95Y-98.69
X137.95Y-99.69
X138.35Y-60.05
X138.95Y-55.69
X138.95Y-56.69
X138.95Y-63.69
X138.95Y-66.69
X138.95Y-67.69
X138.95Y-68.69
X138.95Y-69.69
X138.95Y-70.69
X138.95Y-71.69
X138.95Y-74.69
X138.95Y-77.69
X138.95Y-78.69
X138.95Y-90.69
X139.95Y-55.69
X139.95Y-56.69
X139.95Y-66.69
X139.95Y-67.69
X139.95Y-68.69
X139.95Y-69.69
X139.95Y-70.69
X139.95Y-71.69
X139.95Y-90.69
X140.95Y-47.69
X140.95Y-48.69
X140.95Y-49.69
X140.95Y-52.69
X140.95Y-54.69
X140.95Y-55.69
X140.95Y-56.69
X140.95Y-81.69
X140.95Y-82.69
X140.95Y-96.69
X140.95Y-98.69
X141.95Y-46.69
X141.95Y-47.69
X141.95Y-48.69
X141.95Y-49.69
X141.95Y-52.69
X141.95Y-54.69
X141.95Y-55.69
X141.95Y-56.69
X141.95Y-60.69
X141.95Y-63.69
X141.95Y-64.69
X141.95Y-65.69
X141.95Y-66.69
X141.95Y-67.69
X141.95Y-68.69
X141.95Y-69.69
X141.95Y-70.69
X141.95Y-71.69
X141.95Y-72.69
X141.95Y-73.69
X141.95Y-74.69
X141.95Y-77.69
X141.95Y-78.69
X141.95Y-81.69
X141.95Y-98.69
X141.95Y-99.69
X142.95Y-42.69
X142.95Y-43.69
X142.95Y-44.69
X142.95Y-45.69
X142.95Y-55.69
X142.95Y-56.69
X142.95Y-60.69
X142.95Y-63.69
X142.95Y-67.69
X142.95Y-68.69
X142.95Y-69.69
X142.95Y-70.69
X142.95Y-74.69
X142.95Y-77.69
X142.95Y-78.69
X142.95Y-81.69
X142.95Y-86.69
X142.95Y-89.69
X142.95Y-103.69
X143.65Y-99.85
X143.95Y-42.69
X143.95Y-43.69
X143.95Y-58.69
X143.95Y-74.69
X143.95Y-77.69
X143.95Y-78.69
X143.95Y-79.69
X143.95Y-80.69
X143.95Y-86.69
X143.95Y-103.69
X144.438Y-63.116
X144.95Y-42.69
X144.95Y-43.69
X144.95Y-59.69
X144.95Y-62.501
X144.95Y-86.69
X144.95Y-102.69
X144.95Y-103.69
X145.95Y-42.69
X145.95Y-54.69
X145.95Y-55.69
X145.95Y-56.69
X145.95Y-60.69
X145.95Y-86.69
X145.95Y-87.69
X145.95Y-103.69
X146.551Y-51.558
X146.95Y-42.69
X146.95Y-77.69
X146.95Y-78.69
X146.95Y-79.69
X146.95Y-80.69
X146.95Y-81.69
X146.95Y-82.69
X146.95Y-103.69
X147.35Y-51.516
X147.35Y-56.75
X147.6Y-47.2
X147.95Y-77.69
X147.95Y-78.69
X147.95Y-102.69
X147.95Y-103.69
X148.188Y-91.4
X148.694Y-51.604
X148.95Y-59.69
X148.95Y-89.69
X148.95Y-92.69
X148.95Y-96.69
X148.95Y-97.69
X148.95Y-103.69
X149.05Y-86.95
X149.294Y-52.674
X149.319Y-51.105
X149.95Y-95.69
X149.95Y-96.69
X149.95Y-100.69
X149.95Y-103.69
X150.15Y-48.95
X150.95Y-64.69
X150.95Y-81.69
X150.95Y-82.69
X150.95Y-89.69
X150.95Y-90.69
X150.95Y-94.69
X150.95Y-95.69
X150.95Y-99.69
X150.95Y-100.69
X150.95Y-101.69
X150.95Y-102.69
X150.95Y-103.69
X151.75Y-59.8
X151.95Y-61.69
X151.95Y-68.69
X151.95Y-80.69
X151.95Y-81.69
X151.95Y-94.69
X151.95Y-101.69
X151.95Y-102.69
X151.95Y-103.69
X152.25Y-86.3
X152.56Y-51.25
X152.61Y-46.577
X152.85Y-43.901
X152.95Y-79.69
X152.95Y-80.69
X152.95Y-92.69
X152.95Y-93.69
X152.95Y-94.69
X152.95Y-103.69
X153.0Y-67.15
X153.0Y-78.05
X153.45Y-44.501
X153.95Y-72.69
X153.95Y-73.69
X153.95Y-76.69
X153.95Y-79.69
X153.95Y-82.69
X153.95Y-94.69
X153.95Y-103.69
X154.17Y-45.101
X154.77Y-45.701
X154.95Y-57.69
X154.95Y-81.69
X154.95Y-88.69
X154.95Y-103.69
X155.39Y-46.318
X155.95Y-57.69
X155.95Y-89.69
X155.95Y-103.69
X156.008Y-46.935
X156.444Y-53.104
X156.45Y-83.15
X156.95Y-51.69
X156.95Y-77.69
X156.95Y-78.69
X156.95Y-90.69
X156.95Y-93.69
X156.95Y-103.69
X157.737Y-86.95
X157.95Y-43.69
X157.95Y-51.69
X157.95Y-54.69
X157.95Y-62.69
X157.95Y-88.69
X157.95Y-102.69
X157.95Y-103.69
X158.255Y-65.69
X158.5Y-69.6
X158.6Y-60.8
X158.95Y-43.69
X158.95Y-44.69
X158.95Y-51.69
X158.95Y-54.69
X158.95Y-62.69
X158.95Y-83.69
X158.95Y-89.69
X158.95Y-90.69
X158.95Y-93.69
X158.95Y-94.69
X158.95Y-96.69
X158.95Y-102.69
X158.95Y-103.69
X159.95Y-43.69
X159.95Y-44.69
X159.95Y-45.69
X159.95Y-51.69
X159.95Y-54.69
X159.95Y-78.69
X159.95Y-81.69
X159.95Y-82.69
X159.95Y-83.69
X159.95Y-84.69
X159.95Y-85.69
X159.95Y-86.69
X159.95Y-90.69
X159.95Y-93.69
X159.95Y-94.69
X159.95Y-103.69
X160.95Y-43.69
X160.95Y-44.69
X160.95Y-78.69
X160.95Y-81.69
X160.95Y-82.69
X160.95Y-83.69
X160.95Y-84.69
X160.95Y-85.69
X160.95Y-86.69
X160.95Y-88.69
X160.95Y-93.69
X160.95Y-94.69
X160.95Y-103.69
X161.3Y-54.55
X161.3Y-57.56
X161.55Y-71.35
X161.95Y-43.69
X161.95Y-46.925
X161.95Y-60.69
X161.95Y-62.69
X161.95Y-64.69
X161.95Y-66.69
X161.95Y-78.69
X161.95Y-81.69
X161.95Y-82.69
X161.95Y-83.69
X161.95Y-84.69
X161.95Y-85.69
X161.95Y-86.69
X161.95Y-88.69
X161.95Y-94.69
X161.95Y-103.69
X162.311Y-76.363
X162.595Y-47.625
X162.95Y-57.69
X162.95Y-61.69
X162.95Y-62.69
X162.95Y-63.69
X162.95Y-64.69
X162.95Y-65.69
X162.95Y-66.69
X162.95Y-81.69
X162.95Y-82.69
X162.95Y-83.69
X162.95Y-84.69
X162.95Y-85.69
X162.95Y-86.69
X162.95Y-94.69
X162.95Y-103.69
X163.15Y-48.225
X163.175Y-76.375
X163.75Y-45.65
X163.75Y-48.853
X163.95Y-57.69
X163.95Y-58.69
X163.95Y-77.69
X163.95Y-81.69
X163.95Y-82.69
X163.95Y-83.69
X163.95Y-84.69
X163.95Y-85.69
X163.95Y-86.69
X163.95Y-94.69
X163.95Y-103.69
X164.95Y-57.69
X164.95Y-58.69
X164.95Y-59.69
X164.95Y-60.69
X164.95Y-61.69
X164.95Y-62.69
X164.95Y-63.69
X164.95Y-64.69
X164.95Y-65.69
X164.95Y-66.69
X164.95Y-67.69
X164.95Y-68.69
X164.95Y-94.69
X164.95Y-103.69
X165.95Y-58.69
X165.95Y-59.69
X165.95Y-60.69
X165.95Y-61.69
X165.95Y-62.69
X165.95Y-63.69
X165.95Y-64.69
X165.95Y-65.69
X165.95Y-66.69
X165.95Y-67.69
X165.95Y-96.69
X165.95Y-97.69
X165.95Y-98.69
X165.95Y-99.69
X165.95Y-100.69
X165.95Y-101.69
X165.95Y-102.69
X165.95Y-103.69
X166.275Y-72.975
X166.948Y-53.699
X166.95Y-74.69
X166.95Y-83.69
X166.95Y-96.69
X166.95Y-97.69
X166.95Y-98.69
X166.95Y-99.69
X166.95Y-100.69
X166.95Y-101.69
X166.95Y-102.69
X166.95Y-103.69
X167.157Y-72.957
X167.95Y-78.69
X167.95Y-88.69
X167.95Y-89.69
X167.95Y-97.69
X167.95Y-98.69
X167.95Y-99.69
X167.95Y-100.69
X167.95Y-103.69
X168.807Y-71.307
X168.95Y-76.69
X168.95Y-79.69
X168.95Y-98.69
X168.95Y-99.69
X168.95Y-100.69
X168.95Y-103.69
X169.06Y-47.61
X169.25Y-97.55
X169.498Y-53.098
X169.75Y-85.25
X169.75Y-86.65
X169.775Y-82.475
X169.95Y-42.69
X169.95Y-54.4
X169.95Y-60.05
X169.95Y-63.35
X169.95Y-66.65
X169.95Y-69.95
X169.95Y-73.69
X169.95Y-77.69
X169.95Y-80.69
X169.95Y-98.69
X169.95Y-99.69
X169.95Y-100.69
X169.95Y-101.69
X169.95Y-102.69
X169.95Y-103.69
X170.55Y-48.88
X170.95Y-42.69
X170.95Y-43.69
X170.95Y-94.69
X170.95Y-103.69
X171.431Y-51.931
X171.75Y-81.15
X171.95Y-42.69
X171.95Y-43.69
X171.95Y-84.69
X171.95Y-98.69
X171.95Y-99.69
X171.95Y-100.69
X171.95Y-103.69
X172.15Y-96.72
X172.45Y-88.15
X172.726Y-78.149
X172.95Y-42.69
X172.95Y-45.69
X172.95Y-46.69
X172.95Y-47.69
X172.95Y-55.69
X172.95Y-99.69
X172.95Y-100.69
X172.95Y-101.69
X172.95Y-102.69
X172.95Y-103.69
X173.95Y-42.69
X173.95Y-45.69
X173.95Y-55.69
X173.95Y-56.69
X173.95Y-57.69
X173.95Y-58.69
X173.95Y-61.69
X173.95Y-64.69
X173.95Y-68.69
X173.95Y-71.69
X173.95Y-74.69
X173.95Y-87.69
X173.95Y-88.69
X173.95Y-103.69
X174.95Y-42.69
X174.95Y-43.69
X174.95Y-44.69
X174.95Y-45.69
X174.95Y-55.69
X174.95Y-56.69
X174.95Y-57.69
X174.95Y-58.69
X174.95Y-60.69
X174.95Y-61.69
X174.95Y-62.69
X174.95Y-64.69
X174.95Y-65.69
X174.95Y-67.69
X174.95Y-68.69
X174.95Y-70.69
X174.95Y-71.69
X174.95Y-74.69
X174.95Y-75.69
X174.95Y-78.69
X174.95Y-85.69
X174.95Y-87.69
X174.95Y-97.69
X174.95Y-99.69
X174.95Y-100.69
X174.95Y-103.69
X175.95Y-46.69
X175.95Y-47.69
X175.95Y-48.69
X175.95Y-49.69
X175.95Y-55.69
X175.95Y-56.69
X175.95Y-57.69
X175.95Y-58.69
X175.95Y-61.69
X175.95Y-64.69
X175.95Y-68.69
X175.95Y-71.69
X175.95Y-74.69
X175.95Y-96.69
X175.95Y-97.69
X175.95Y-98.69
X175.95Y-99.69
X176.95Y-56.69
X176.95Y-57.69
X176.95Y-58.69
X176.95Y-61.69
X176.95Y-64.69
X176.95Y-68.69
X176.95Y-71.69
X176.95Y-74.69
X176.95Y-90.69
X176.95Y-98.69
X177.95Y-89.69
X177.95Y-90.69
X178.95Y-55.69
X178.95Y-56.69
X178.95Y-57.69
X178.95Y-58.69
X178.95Y-61.69
X178.95Y-64.69
X178.95Y-68.69
X178.95Y-71.69
X178.95Y-89.69
X178.95Y-90.69
X179.95Y-46.69
X179.95Y-47.69
X179.95Y-48.69
X179.95Y-49.69
X179.95Y-50.69
X179.95Y-51.69
X179.95Y-52.69
X179.95Y-53.69
X179.95Y-54.69
X179.95Y-55.69
X179.95Y-56.69
X179.95Y-57.69
X179.95Y-58.69
X179.95Y-59.69
X179.95Y-60.69
X179.95Y-61.69
X179.95Y-62.69
X179.95Y-63.69
X179.95Y-64.69
X179.95Y-65.69
X179.95Y-66.69
X179.95Y-67.69
X179.95Y-68.69
X179.95Y-69.69
X179.95Y-70.69
X179.95Y-71.69
X179.95Y-72.69
X179.95Y-73.69
X179.95Y-76.69
X179.95Y-77.69
X179.95Y-78.69
X179.95Y-79.69
X179.95Y-80.69
X179.95Y-81.69
X179.95Y-82.69
X179.95Y-83.69
X179.95Y-84.69
X179.95Y-85.69
X179.95Y-86.69
X179.95Y-89.69
X179.95Y-90.69
X179.95Y-91.69
X179.95Y-92.69
X179.95Y-93.69
X179.95Y-94.69
X179.95Y-95.69
X179.95Y-96.69
X179.95Y-97.69
X179.95Y-98.69
X179.95Y-99.69
T2
X144.25Y-50.91
X145.0Y-46.1
X147.15Y-64.65
X147.15Y-73.65
X148.188Y-87.75
X155.65Y-95.55
X169.05Y-94.25
T4
X151.48Y-92.67
X152.75Y-91.4
X154.02Y-92.67
T5
X157.795Y-92.05
X159.795Y-92.05
T6
X139.25Y-48.75
X139.25Y-51.29
X139.25Y-53.83
X139.25Y-84.25
X139.25Y-88.35
X139.26Y-92.75
X139.26Y-95.29
X139.26Y-97.83
X141.79Y-84.25
X141.79Y-88.35
X144.33Y-84.25
X144.33Y-88.35
X146.87Y-84.25
X158.25Y-80.25
X158.25Y-85.25
X178.25Y-48.75
X178.25Y-51.29
X178.25Y-53.83
X178.25Y-92.67
X178.25Y-95.21
X178.25Y-97.75
T7
X139.75Y-44.25
X139.75Y-102.25
X177.75Y-44.25
X177.75Y-102.25
T8
X155.15Y-99.795
X162.35Y-99.795
T9
X143.25Y-66.25
X143.25Y-72.03
T3
G00X139.9Y-64.82
M15
G01X139.3Y-64.82
M16
G05
G00X139.9Y-73.46
M15
G01X139.3Y-73.46
M16
G05
G00X144.33Y-64.82
M15
G01X143.23Y-64.82
M16
G05
G00X144.33Y-73.46
M15
G01X143.23Y-73.46
M16
G05
M30
